HIERARCHY
ROOT Hips
{
     OFFSET -5.27719 98.17270 13.69670
     CHANNELS 6 Xposition Yposition Zposition Zrotation Xrotation Yrotation
     JOINT Spine
     {
          OFFSET 0.00000 11.89050 0.00000
          CHANNELS 3 Zrotation Xrotation Yrotation
          JOINT Spine1
          {
               OFFSET 0.00000 25.65740 0.12766
               CHANNELS 3 Zrotation Xrotation Yrotation
               JOINT HEad
               {
                    OFFSET 0.00000 8.73416 0.01134
                    CHANNELS 3 Zrotation Xrotation Yrotation
                    End Site
                    {
                         OFFSET -0.29000 12.77420 2.51395
                    }
               }
               JOINT LeftShoulder1
               {
                    OFFSET 8.99000 -0.36225 -0.22000
                    CHANNELS 3 Zrotation Xrotation Yrotation
                    JOINT LeftArm
                    {
                         OFFSET 10.28270 -0.00338 0.32212
                         CHANNELS 3 Zrotation Xrotation Yrotation
                         JOINT LeftForeArm
                         {
                              OFFSET 32.76690 0.09914 -1.42434
                              CHANNELS 3 Zrotation Xrotation Yrotation
                              JOINT LeftHand
                              {
                                   OFFSET 27.56430 0.08536 1.02216
                                   CHANNELS 3 Zrotation Xrotation Yrotation
                                   End Site
                                   {
                                        OFFSET 16.74430 -0.60000 1.50291
                                   }
                              }
                         }
                    }
               }
               JOINT RightShoulder
               {
                    OFFSET -8.99000 -0.36225 -0.22000
                    CHANNELS 3 Zrotation Xrotation Yrotation
                    JOINT RightArm
                    {
                         OFFSET -10.28270 -0.00338 0.32212
                         CHANNELS 3 Zrotation Xrotation Yrotation
                         JOINT RightForeArm
                         {
                              OFFSET -32.89710 0.09914 -1.42434
                              CHANNELS 3 Zrotation Xrotation Yrotation
                              JOINT RightHand
                              {
                                   OFFSET -27.49210 0.08536 1.02216
                                   CHANNELS 3 Zrotation Xrotation Yrotation
                                   End Site
                                   {
                                        OFFSET -16.63120 -0.60000 1.50291
                                   }
                              }
                         }
                    }
               }
          }
     }
     JOINT LeftUpLeg
     {
          OFFSET 8.94580 -8.66707 0.10165
          CHANNELS 3 Zrotation Xrotation Yrotation
          JOINT LeftLeg
          {
               OFFSET -0.00000 -44.42270 1.37270
               CHANNELS 3 Zrotation Xrotation Yrotation
               JOINT LeftFoot
               {
                    OFFSET -0.25355 -42.09240 -1.46059
                    CHANNELS 3 Zrotation Xrotation Yrotation
                    JOINT LeftToes
                    {
                         OFFSET -0.04000 -4.41509 8.49910
                         CHANNELS 3 Zrotation Xrotation Yrotation
                         End Site
                         {
                              OFFSET 0.08000 -0.04745 9.77979
                         }
                    }
               }
          }
     }
     JOINT RightUpLeg
     {
          OFFSET -8.94580 -8.66707 0.10165
          CHANNELS 3 Zrotation Xrotation Yrotation
          JOINT RightLeg
          {
               OFFSET 0.00000 -44.42270 1.37270
               CHANNELS 3 Zrotation Xrotation Yrotation
               JOINT RightFoot
               {
                    OFFSET 0.25355 -42.09240 -1.46059
                    CHANNELS 3 Zrotation Xrotation Yrotation
                    JOINT RightToes
                    {
                         OFFSET 0.04000 -4.41509 8.49910
                         CHANNELS 3 Zrotation Xrotation Yrotation
                         End Site
                         {
                              OFFSET -0.08000 -0.13745 9.77979
                         }
                    }
               }
          }
     }
}
MOTION
Frames: 8
Frame Time: 0.01667
-5.27719 98.17270 13.69670 -1.37752 -1.80559 -35.92490 -1.23820 3.59472 4.03537 -1.33958 7.00630 7.81386 -4.42452 8.59483 32.52700 -0.00000 -0.00000 0.00000 -91.34720 -34.50400 -102.16400 -15.91380 23.02930 -74.84110 5.55594 9.67997 -0.87718 8.53448 0.69346 2.88023 70.57640 -11.87870 96.32570 10.54270 18.39230 82.62150 -5.55712 9.68432 0.87760 10.51220 -15.20090 4.65824 1.21231 24.64480 -5.75879 -10.99380 -8.76866 -0.07054 1.11460 -6.34703 -5.46343 -16.55230 7.51772 2.77475 0.65162 23.97660 -3.04103 18.32800 -3.54978 -0.81006 -7.90128 -10.79320 -0.39333 
-5.62900 97.87100 12.85140 -1.28722 -2.00549 -36.67160 -1.21701 3.59920 4.13603 -1.53464 7.02495 8.04434 -4.57313 8.43229 33.19930 -0.00000 -0.00000 0.00000 -92.27980 -35.22090 -102.52100 -16.14700 23.60190 -75.09800 5.55594 9.67997 -0.87718 8.53301 0.69614 2.90337 70.38760 -11.67800 96.19430 10.48980 18.27760 82.60500 -5.55712 9.68432 0.87760 10.91450 -15.38130 4.85508 1.27159 24.87840 -4.90377 -11.30030 -7.42614 0.05232 1.20481 -9.38192 -6.47614 -16.40380 7.90112 2.57259 0.72041 23.13410 -3.06051 16.88200 -5.51932 -0.47705 -8.03253 -11.12000 -0.86081 
-5.98144 97.60390 11.99140 -1.29438 -2.17390 -37.43950 -1.06829 3.61037 4.22996 -1.70666 7.07668 8.29250 -4.71209 8.18490 33.85010 -0.00000 -0.00000 0.00000 -93.54440 -35.92870 -103.07200 -16.47180 24.44570 -75.49720 5.55594 9.67997 -0.87718 8.55505 0.70140 2.93993 70.18000 -11.44700 95.93150 10.49890 18.31480 82.64930 -5.55712 9.68432 0.87760 11.40410 -15.40050 4.96368 1.29680 24.83860 -3.83584 -11.32530 -5.54476 0.22855 1.21353 -13.28040 -7.53846 -16.16240 8.16502 2.27456 0.96391 22.46340 -3.15144 14.79370 -7.26000 -0.22139 -7.92081 -11.14400 -1.31393 
-6.31968 97.35340 11.11850 -1.40719 -2.28937 -38.20830 -0.79019 3.63364 4.31927 -1.83503 7.16878 8.54721 -4.85610 7.90287 34.46000 -0.00000 -0.00000 0.00000 -95.07330 -36.61520 -103.80900 -16.89100 25.48230 -75.95620 5.55594 9.67997 -0.87718 8.57056 0.70767 2.98712 69.83180 -11.20270 95.56560 10.50670 18.38170 82.74650 -5.55712 9.68432 0.87760 11.99100 -15.33660 5.02571 1.34834 24.65960 -2.69882 -11.29600 -3.37869 0.42945 1.12734 -17.50650 -8.57442 -15.78450 8.29898 1.83890 1.21106 22.00250 -3.17804 12.63680 -8.89052 -0.04227 -7.61861 -10.89470 -1.63917 
-6.63921 97.12060 10.23410 -1.56407 -2.35839 -38.95590 -0.47509 3.67091 4.40808 -1.92825 7.29121 8.79764 -5.01570 7.67369 35.01110 -0.00000 -0.00000 0.00000 -96.72720 -37.25920 -104.65700 -17.37090 26.58840 -76.39670 5.55594 9.67997 -0.87718 8.52214 0.71053 3.02849 69.33120 -10.95510 95.11960 10.48990 18.43080 82.88850 -5.55712 9.68432 0.87760 12.60400 -15.23020 5.07260 1.48793 24.37990 -1.69307 -11.48550 -1.33169 0.62974 0.97832 -21.24900 -9.46203 -15.32160 8.30964 1.34425 1.36442 21.72610 -3.06766 10.95630 -10.57400 0.09178 -7.15295 -10.35000 -1.68526 
-6.94196 96.89760 9.34964 -1.68431 -2.40375 -39.64330 -0.22228 3.71679 4.49339 -2.01928 7.42029 9.02431 -5.17612 7.53503 35.50220 -0.00000 -0.00000 0.00000 -98.33360 -37.84090 -105.49900 -17.86640 27.65160 -76.76700 5.55594 9.67997 -0.87718 8.41494 0.70957 3.05928 68.65250 -10.71850 94.60790 10.42860 18.41330 83.04930 -5.55712 9.68432 0.87760 13.14770 -15.15290 5.08622 1.73976 24.11310 -1.04594 -12.06630 0.04662 0.79892 0.84199 -23.72030 -10.01060 -14.88580 8.20447 0.94836 1.45246 21.60820 -2.89100 9.90720 -12.26490 0.20256 -6.75924 -9.74213 -1.33745 
-7.23192 96.69260 8.48468 -1.72614 -2.44448 -40.20650 -0.05743 3.76050 4.55808 -2.12749 7.53329 9.19743 -5.31297 7.46106 35.93570 -0.00000 -0.00000 0.00000 -99.73810 -38.34010 -106.21600 -18.33880 28.59910 -77.04850 5.55594 9.67997 -0.87718 8.32497 0.70923 3.08944 67.71100 -10.50990 94.05530 10.28860 18.24050 83.17690 -5.55712 9.68432 0.87760 13.56840 -15.13480 4.99674 2.04912 23.90430 -0.90915 -13.01190 0.41962 0.90332 0.78522 -24.60430 -10.08340 -14.54170 8.06314 0.73892 1.52470 21.51600 -2.75533 9.32780 -13.75720 0.29337 -6.67472 -9.36515 -0.62547 
-7.51118 96.52290 7.65465 -1.69229 -2.48655 -40.59120 0.04304 3.79411 4.59006 -2.25166 7.61809 9.29009 -5.42773 7.41795 36.30700 -0.00000 -0.00000 0.00000 -100.82900 -38.73630 -106.70400 -18.75540 29.39290 -77.25140 5.55594 9.67997 -0.87718 8.35104 0.71537 3.13221 66.42260 -10.34940 93.49420 10.04730 17.83700 83.21190 -5.55712 9.68432 0.87760 13.85570 -15.16980 4.76461 2.36059 23.72560 -1.37138 -14.19330 -0.19782 0.91500 0.81427 -24.09210 -9.73048 -14.26990 7.96947 0.66823 1.56204 21.34260 -2.65244 9.11243 -15.05800 0.37947 -6.79417 -9.15872 0.28641 
